<svg width="16.000000" height="16.000000" viewBox="0 0 16 16" fill="none" xmlns="http://www.w3.org/2000/svg" xmlns:xlink="http://www.w3.org/1999/xlink">
	<desc>
			Created with Pixso.
	</desc>
	<defs>
		<clipPath id="clip602_216">
			<rect id="bi:x-lg" width="16.000000" height="16.000000" fill="white" fill-opacity="0"/>
		</clipPath>
	</defs>
	<rect id="bi:x-lg" width="16.000000" height="16.000000" fill="#FFFFFF" fill-opacity="0"/>
	<g clip-path="url(#clip602_216)">
		<path id="Vector" d="M2.14624 2.854C2.09961 2.80751 2.06274 2.75232 2.0376 2.69158C2.01245 2.63084 1.99951 2.56574 1.99951 2.5C1.99951 2.43425 2.01245 2.36916 2.0376 2.30841C2.06274 2.24768 2.09961 2.19249 2.14624 2.146C2.19263 2.09951 2.2478 2.06263 2.30859 2.03748C2.36938 2.01232 2.43433 1.99937 2.50024 1.99937C2.56592 1.99937 2.6311 2.01232 2.69165 2.03748C2.75244 2.06263 2.80762 2.09951 2.85425 2.146L8.00024 7.293L13.1462 2.146C13.1926 2.09951 13.2478 2.06263 13.3086 2.03748C13.3694 2.01232 13.4343 1.99937 13.5002 1.99937C13.5659 1.99937 13.6311 2.01232 13.6917 2.03748C13.7524 2.06263 13.8076 2.09951 13.8542 2.146C13.9006 2.19249 13.9375 2.24768 13.9626 2.30841C13.9878 2.36916 14.0007 2.43425 14.0007 2.5C14.0007 2.56574 13.9878 2.63084 13.9626 2.69158C13.9375 2.75232 13.9006 2.80751 13.8542 2.854L8.70703 8L13.8542 13.146C13.9006 13.1925 13.9375 13.2477 13.9626 13.3084C13.9878 13.3692 14.0007 13.4343 14.0007 13.5C14.0007 13.5657 13.9878 13.6308 13.9626 13.6916C13.9375 13.7523 13.9006 13.8075 13.8542 13.854C13.8076 13.9005 13.7524 13.9374 13.6917 13.9625C13.6311 13.9877 13.5659 14.0006 13.5002 14.0006C13.4343 14.0006 13.3694 13.9877 13.3086 13.9625C13.2478 13.9374 13.1926 13.9005 13.1462 13.854L8.00024 8.707L2.85425 13.854C2.80762 13.9005 2.75244 13.9374 2.69165 13.9625C2.6311 13.9877 2.56592 14.0006 2.50024 14.0006C2.43433 14.0006 2.36938 13.9877 2.30859 13.9625C2.2478 13.9374 2.19263 13.9005 2.14624 13.854C2.09961 13.8075 2.06274 13.7523 2.0376 13.6916C2.01245 13.6308 1.99951 13.5657 1.99951 13.5C1.99951 13.4343 2.01245 13.3692 2.0376 13.3084C2.06274 13.2477 2.09961 13.1925 2.14624 13.146L7.29321 8L2.14624 2.854Z" fill="#FFFFFF" fill-opacity="1.000000" fill-rule="nonzero"/>
	</g>
</svg>
