<svg width="21.000977" height="19.500000" viewBox="0 0 21.001 19.5" fill="none" xmlns="http://www.w3.org/2000/svg" xmlns:xlink="http://www.w3.org/1999/xlink">
	<desc>
			Created with Pixso.
	</desc>
	<defs/>
	<path id="Vector" d="M1.5 9.75122C1.49976 8.30298 1.88086 6.88013 2.60486 5.62573C3.32886 4.37158 4.37024 3.32983 5.62451 2.60547C6.87866 1.88135 8.30139 1.5 9.74963 1.5C11.198 1.5 12.6207 1.8811 13.875 2.60522C14.0472 2.70312 14.2511 2.729 14.4423 2.677C14.6333 2.62524 14.7961 2.49976 14.8953 2.32837C14.9943 2.15674 15.0214 1.95312 14.9708 1.76147C14.9202 1.57007 14.7959 1.40649 14.625 1.30615C12.7664 0.233154 10.6055 -0.196777 8.47754 0.0834961C6.34961 0.363525 4.37366 1.33789 2.85596 2.85547C1.33826 4.37305 0.36377 6.34912 0.0834961 8.47681C-0.196777 10.6047 0.23291 12.7656 1.30591 14.6245C2.37891 16.4832 4.03528 17.936 6.01807 18.7576C8.00098 19.5791 10.1995 19.7234 12.2726 19.168C14.3458 18.6128 16.1777 17.3889 17.4845 15.6863C18.7913 13.9836 19.4998 11.8975 19.5 9.75122C19.5 9.55225 19.421 9.36157 19.2804 9.22095C19.1396 9.08032 18.949 9.00122 18.75 9.00122C18.5511 9.00122 18.3604 9.08032 18.2197 9.22095C18.079 9.36157 18 9.55225 18 9.75122C18 11.9392 17.1309 14.0378 15.5836 15.585C14.0365 17.1321 11.938 18.0012 9.75 18.0012C7.56201 18.0012 5.4635 17.1321 3.91638 15.585C2.36926 14.0378 1.5 11.9392 1.5 9.75122Z" fill="#FFFFFF" fill-opacity="1.000000" fill-rule="nonzero"/>
	<path id="Vector" d="M20.781 2.78223C20.8507 2.7124 20.906 2.62964 20.9437 2.53857C20.9814 2.44751 21.001 2.34985 21.001 2.25122C21.001 2.15259 20.9814 2.05493 20.9437 1.96387C20.906 1.8728 20.8507 1.79004 20.781 1.72021C20.7112 1.65039 20.6284 1.59521 20.5374 1.55737C20.4463 1.51978 20.3486 1.50024 20.25 1.50024C20.1514 1.50024 20.0537 1.51978 19.9626 1.55737C19.8715 1.59521 19.7887 1.65039 19.719 1.72021L9.75 11.6907L5.78101 7.72021C5.71118 7.65039 5.62842 7.59521 5.53735 7.55737C5.44629 7.51978 5.34863 7.50024 5.25 7.50024C5.15137 7.50024 5.05371 7.51978 4.96265 7.55737C4.87146 7.59521 4.7887 7.65039 4.71899 7.72021C4.64929 7.79004 4.59387 7.8728 4.55615 7.96387C4.51843 8.05493 4.49902 8.15259 4.49902 8.25122C4.49902 8.34985 4.51843 8.44751 4.55615 8.53857C4.59387 8.62964 4.64929 8.7124 4.71899 8.78223L9.21899 13.2822C9.2887 13.3521 9.37146 13.4075 9.46252 13.4453C9.55359 13.4832 9.65137 13.5024 9.75 13.5024C9.84863 13.5024 9.94629 13.4832 10.0375 13.4453C10.1285 13.4075 10.2113 13.3521 10.281 13.2822L20.781 2.78223Z" fill="#FFFFFF" fill-opacity="1.000000" fill-rule="nonzero"/>
</svg>
