<svg width="24.000000" height="24.000000" viewBox="0 0 24 24" fill="none" xmlns="http://www.w3.org/2000/svg" xmlns:xlink="http://www.w3.org/1999/xlink">
	<desc>
			Created with Pixso.
	</desc>
	<defs>
		<clipPath id="clip602_101">
			<rect id="bi:bell" width="24.000000" height="24.000000" fill="white" fill-opacity="0"/>
		</clipPath>
	</defs>
	<rect id="bi:bell" width="24.000000" height="24.000000" fill="#FFFFFF" fill-opacity="0"/>
	<g clip-path="url(#clip602_101)">
		<path id="Vector" d="M12 23.9998C12.7957 23.9998 13.5587 23.6838 14.1213 23.1211C14.684 22.5586 15 21.7954 15 20.9998L9 20.9998C9 21.7954 9.31604 22.5586 9.87866 23.1211C10.4413 23.6838 11.2043 23.9998 12 23.9998ZM12 2.87695L10.8044 3.11841C9.44849 3.39453 8.22949 4.1311 7.354 5.20288C6.47852 6.27466 6.00012 7.61597 6 8.99976C6 9.94189 5.79895 12.2954 5.31152 14.6128C5.07153 15.7634 4.74756 16.9619 4.31702 17.9998L19.683 17.9998C19.2524 16.9619 18.9301 15.7649 18.6885 14.6128C18.201 12.2954 18 9.94189 18 8.99976C17.9995 7.61621 17.521 6.27515 16.6455 5.20361C15.77 4.13232 14.5513 3.396 13.1956 3.11987L12 2.87695ZM21.33 17.9998C21.6646 18.6704 22.0515 19.2014 22.5 19.4998L1.5 19.4998C1.94849 19.2014 2.33545 18.6704 2.67004 17.9998C4.02002 15.2998 4.5 10.3198 4.5 8.99976C4.5 5.36987 7.07996 2.33984 10.5074 1.64844C10.4866 1.4397 10.5095 1.22925 10.5751 1.03003C10.6405 0.830811 10.7471 0.647705 10.8876 0.492188C11.0282 0.33667 11.2 0.212646 11.3915 0.127441C11.5831 0.0424805 11.7904 -0.00146484 12 -0.00146484C12.2096 -0.00146484 12.4169 0.0424805 12.6085 0.127441C12.8 0.212646 12.9718 0.33667 13.1124 0.492188C13.2531 0.647705 13.3595 0.830811 13.4249 1.03003C13.4905 1.22925 13.5134 1.4397 13.4926 1.64844C15.1879 1.99316 16.712 2.91333 17.8069 4.25317C18.9016 5.59277 19.4998 7.26978 19.5 8.99976C19.5 10.3198 19.98 15.2998 21.33 17.9998Z" fill="#FFFFFF" fill-opacity="1.000000" fill-rule="nonzero"/>
	</g>
</svg>
