<svg width="24" height="24" viewBox="0 0 24 24" fill="none" xmlns="http://www.w3.org/2000/svg" xmlns:xlink="http://www.w3.org/1999/xlink"><desc>Created with Pixso. </desc><defs/><path id="Vector" d="M6.81006 0.218994C6.95056 0.0787964 7.14099 6.10352e-05 7.33948 0L16.6605 0C16.859 6.10352e-05 17.0494 0.0787964 17.1899 0.218994L23.781 6.81C23.9211 6.95056 24 7.14099 24 7.33948L24 16.6605C24 16.859 23.9211 17.0494 23.781 17.19L17.1899 23.781C17.0494 23.9212 16.859 23.9999 16.6605 24L7.33948 24C7.14099 23.9999 6.95056 23.9212 6.81006 23.781L0.218994 17.19C0.0788574 17.0494 0 16.859 0 16.6605L0 7.33948C0 7.14099 0.0788574 6.95056 0.218994 6.81L6.81006 0.218994ZM7.65002 1.5L1.5 7.65002L1.5 16.35L7.65002 22.5L16.35 22.5L22.5 16.35L22.5 7.65002L16.35 1.5L7.65002 1.5Z" fill="#FAFAFB" fill-opacity="1.000000" fill-rule="nonzero" /><path id="Vector" d="M6.96899 6.96899C7.0387 6.89917 7.12146 6.84375 7.21252 6.80591C7.30371 6.76813 7.40137 6.74866 7.5 6.74866C7.59863 6.74866 7.69629 6.76813 7.78748 6.80591C7.87854 6.84375 7.9613 6.89917 8.03101 6.96899L12 10.9395L15.969 6.96899C16.0387 6.89929 16.1215 6.84393 16.2126 6.80621C16.3037 6.76849 16.4014 6.74902 16.5 6.74902C16.5986 6.74902 16.6963 6.76849 16.7874 6.80621C16.8785 6.84393 16.9613 6.89929 17.031 6.96899C17.1007 7.03876 17.156 7.12152 17.1937 7.21265C17.2316 7.30371 17.251 7.40137 17.251 7.5C17.251 7.59863 17.2316 7.69629 17.1937 7.78735C17.156 7.87848 17.1007 7.96124 17.031 8.03101L13.0605 12L17.031 15.969C17.1007 16.0388 17.156 16.1215 17.1937 16.2126C17.2316 16.3037 17.251 16.4014 17.251 16.5C17.251 16.5986 17.2316 16.6963 17.1937 16.7874C17.156 16.8785 17.1007 16.9612 17.031 17.031C16.9613 17.1007 16.8785 17.1561 16.7874 17.1938C16.6963 17.2315 16.5986 17.2509 16.5 17.2509C16.4014 17.2509 16.3037 17.2315 16.2126 17.1938C16.1215 17.1561 16.0387 17.1007 15.969 17.031L12 13.0605L8.03101 17.031C7.9613 17.1007 7.87854 17.1561 7.78735 17.1938C7.69629 17.2315 7.59863 17.2509 7.5 17.2509C7.40137 17.2509 7.30371 17.2315 7.21265 17.1938C7.12146 17.1561 7.0387 17.1007 6.96899 17.031C6.89929 16.9612 6.84399 16.8785 6.80615 16.7874C6.76843 16.6963 6.74902 16.5986 6.74902 16.5C6.74902 16.4014 6.76843 16.3037 6.80615 16.2126C6.84399 16.1215 6.89929 16.0388 6.96899 15.969L10.9395 12L6.96899 8.03101C6.89917 7.9613 6.84375 7.87854 6.80591 7.78748C6.76807 7.69635 6.74866 7.59863 6.74866 7.5C6.74866 7.40137 6.76807 7.30365 6.80591 7.21252C6.84375 7.1214 6.89917 7.0387 6.96899 6.96899Z" fill="#FAFAFB" fill-opacity="1.000000" fill-rule="nonzero" /></svg>