<svg width="24.000000" height="24.000000" viewBox="0 0 24 24" fill="none" xmlns="http://www.w3.org/2000/svg" xmlns:xlink="http://www.w3.org/1999/xlink">
	<desc>
			Created with Pixso.
	</desc>
	<defs>
		<clipPath id="clip602_78">
			<rect id="bi:exclamation-triangle" width="24.000000" height="24.000000" fill="white" fill-opacity="0"/>
		</clipPath>
	</defs>
	<rect id="bi:exclamation-triangle" width="24.000000" height="24.000000" fill="#FFFFFF" fill-opacity="0"/>
	<g clip-path="url(#clip602_78)">
		<path id="Vector" d="M11.907 3.02417C11.9364 3.00806 11.9695 2.99976 12.0031 3.00024C12.036 3 12.0686 3.0083 12.0975 3.02417C12.1318 3.04468 12.1599 3.07422 12.1786 3.10962L22.464 20.6101C22.5181 20.7002 22.5166 20.7961 22.467 20.8848C22.448 20.9209 22.4202 20.9519 22.386 20.9746C22.3563 20.9929 22.3219 21.0017 22.287 21.0002L1.71899 21.0002C1.6842 21.002 1.64966 20.9929 1.62 20.9746C1.58594 20.9519 1.55811 20.9209 1.53906 20.8848C1.51428 20.843 1.50159 20.7954 1.50208 20.7471C1.50256 20.6985 1.51636 20.6514 1.54199 20.6101L11.826 3.10962C11.8448 3.07446 11.8728 3.04492 11.907 3.02417ZM13.473 2.34912C13.3246 2.09058 13.1105 1.87573 12.8523 1.72607C12.5942 1.57666 12.3013 1.49805 12.0031 1.49805C11.7048 1.49805 11.4119 1.57666 11.1537 1.72607C10.8956 1.87573 10.6815 2.09058 10.5331 2.34912L0.247559 19.8496C-0.437988 21.0166 0.384033 22.5002 1.71753 22.5002L22.287 22.5002C23.6205 22.5002 24.4441 21.0151 23.7571 19.8496L13.473 2.34912Z" fill="#FFFFFF" fill-opacity="1.000000" fill-rule="nonzero"/>
		<path id="Vector" d="M10.5031 18.0002C10.5031 17.8032 10.5419 17.6082 10.6172 17.4263C10.6926 17.2441 10.8031 17.0789 10.9424 16.9395C11.0817 16.8003 11.2471 16.6897 11.4291 16.6143C11.611 16.5391 11.806 16.5002 12.0031 16.5002C12.2001 16.5002 12.3951 16.5391 12.577 16.6143C12.759 16.6897 12.9244 16.8003 13.0637 16.9395C13.203 17.0789 13.3135 17.2441 13.3889 17.4263C13.4642 17.6082 13.5031 17.8032 13.5031 18.0002C13.5031 18.3979 13.345 18.7795 13.0637 19.0608C12.7823 19.342 12.4009 19.5002 12.0031 19.5002C11.6052 19.5002 11.2238 19.342 10.9424 19.0608C10.6611 18.7795 10.5031 18.3979 10.5031 18.0002ZM10.65 8.99268C10.6301 8.80347 10.6501 8.61206 10.7089 8.43115C10.7676 8.25 10.8638 8.0835 10.9911 7.94214C11.1183 7.80054 11.2739 7.6875 11.4478 7.61011C11.6216 7.53271 11.8098 7.49268 12 7.49268C12.1903 7.49268 12.3785 7.53271 12.5524 7.61011C12.7262 7.6875 12.8818 7.80054 13.009 7.94214C13.1364 8.0835 13.2325 8.25 13.2913 8.43115C13.35 8.61206 13.37 8.80347 13.3501 8.99268L12.8251 14.2532C12.8074 14.4597 12.7129 14.6523 12.5601 14.7927C12.4073 14.9329 12.2075 15.0107 12 15.0107C11.7926 15.0107 11.5928 14.9329 11.4401 14.7927C11.2872 14.6523 11.1927 14.4597 11.175 14.2532L10.65 8.99268Z" fill="#FFFFFF" fill-opacity="1.000000" fill-rule="nonzero"/>
	</g>
</svg>
